<?xml version="1.0" standalone="no"?>
<!DOCTYPE svg PUBLIC "-//W3C//DTD SVG 20010904//EN"
 "http://www.w3.org/TR/2001/REC-SVG-20010904/DTD/svg10.dtd">
<svg version="1.0" xmlns="http://www.w3.org/2000/svg"
 width="500.000000pt" height="500.000000pt" viewBox="0 0 500.000000 500.000000"
 preserveAspectRatio="xMidYMid meet">
<metadata>
Created by potrace 1.11, written by Peter Selinger 2001-2013
</metadata>
<g transform="translate(0.000000,500.000000) scale(0.100000,-0.100000)"
fill="#000000" stroke="none">
<path d="M2526 4024 c-76 -77 -127 -171 -147 -272 -13 -70 -7 -248 10 -265 12
-12 48 27 93 101 18 28 36 52 40 52 13 0 30 -114 25 -163 -8 -60 4 -59 55 8
94 124 105 324 28 530 -12 33 -26 64 -30 68 -4 4 -37 -23 -74 -59z"/>
<path d="M1400 3895 c0 -32 88 -217 144 -304 58 -89 145 -174 214 -208 44 -22
74 -29 132 -31 107 -4 111 1 59 84 -23 38 -64 95 -91 126 -26 31 -48 59 -48
62 0 3 15 3 33 0 108 -18 192 -52 250 -104 19 -16 38 -30 42 -30 13 0 -4 92
-26 137 -65 134 -266 234 -534 263 -49 6 -109 12 -132 15 -33 3 -43 1 -43 -10z"/>
<path d="M2970 3753 c-120 -90 -223 -245 -265 -398 -19 -70 -31 -299 -17 -335
9 -24 9 -24 73 37 35 34 78 84 94 112 17 28 35 49 40 48 6 -2 11 -21 13 -43 4
-46 -26 -221 -39 -230 -12 -7 -11 -24 2 -24 18 0 121 103 155 157 19 28 46 87
61 130 25 71 27 91 28 223 0 88 -5 166 -13 200 -32 131 -45 170 -57 170 -7 0
-41 -21 -75 -47z"/>
<path d="M1930 3555 c0 -3 35 -45 78 -94 233 -264 378 -584 432 -952 21 -142
29 -542 11 -553 -10 -7 -156 63 -263 127 -104 61 -220 148 -296 220 -34 33
-64 58 -67 55 -3 -3 12 -36 32 -74 77 -138 333 -373 507 -464 l68 -35 -6 -58
c-5 -55 -56 -295 -77 -362 -36 -119 -103 -316 -129 -376 -16 -39 -30 -73 -30
-75 0 -3 87 -3 192 -2 l193 3 13 40 c34 100 112 550 112 640 0 8 36 32 80 54
128 65 232 150 310 256 49 66 95 153 86 162 -4 5 -12 -1 -18 -12 -19 -35 -141
-147 -208 -191 -51 -33 -224 -124 -235 -124 -1 0 -6 71 -9 158 -11 240 -50
493 -96 632 l-19 55 23 25 c56 61 123 175 184 310 34 77 73 183 68 188 -3 2
-22 -23 -43 -58 -52 -85 -170 -249 -216 -300 -37 -41 -67 -48 -67 -16 0 32
-150 335 -186 377 -13 14 -9 25 26 85 41 70 92 191 109 260 5 22 13 49 16 62
14 43 -12 21 -40 -35 -31 -63 -123 -213 -153 -252 l-19 -23 -67 85 c-76 98
-194 211 -255 245 -22 13 -41 21 -41 17z"/>
<path d="M1277 2983 c-6 -10 19 -213 34 -278 80 -350 271 -574 536 -630 108
-23 109 -23 59 43 -56 72 -100 159 -120 238 -16 63 -21 114 -10 114 3 0 30
-22 60 -49 30 -27 102 -82 160 -121 81 -54 109 -68 115 -58 5 7 9 54 9 104 0
329 -250 549 -714 629 -100 17 -123 18 -129 8z"/>
<path d="M3619 2785 c-367 -80 -606 -267 -704 -551 -21 -60 -29 -105 -32 -186
-3 -60 -3 -108 1 -108 4 0 34 13 69 29 74 34 167 102 228 168 24 26 46 46 48
43 7 -8 2 -79 -10 -135 -15 -69 -39 -133 -66 -177 -33 -54 -30 -61 20 -53 241
38 398 189 485 465 37 119 72 344 72 468 0 50 -1 52 -27 51 -16 -1 -53 -7 -84
-14z"/>
</g>
</svg>
